<?xml version="1.0" standalone="no"?>
<!DOCTYPE svg PUBLIC "-//W3C//DTD SVG 20010904//EN"
 "http://www.w3.org/TR/2001/REC-SVG-20010904/DTD/svg10.dtd">
<svg version="1.0" xmlns="http://www.w3.org/2000/svg"
 width="859.000000pt" height="158.000000pt" viewBox="0 0 859.000000 158.000000"
 preserveAspectRatio="xMidYMid meet">
<metadata>
Created by potrace 1.16, written by Peter Selinger 2001-2019
</metadata>
<g transform="translate(0.000000,158.000000) scale(0.100000,-0.100000)"
fill="#409136" stroke="none">
<path d="M405 1546 c-146 -29 -240 -82 -305 -174 -57 -79 -75 -140 -74 -247 1
-114 26 -184 94 -257 82 -90 182 -140 400 -203 68 -19 142 -44 166 -56 116
-56 118 -209 4 -266 -119 -61 -265 5 -304 136 -9 30 -16 63 -16 73 0 21 8 21
-210 5 l-155 -12 0 -85 c0 -76 4 -92 33 -152 65 -134 166 -213 322 -255 92
-24 359 -25 448 0 97 26 171 67 233 127 140 137 185 370 104 547 -63 138 -191
222 -448 294 -236 65 -244 68 -271 100 -81 96 53 205 195 158 53 -18 97 -66
116 -127 l17 -54 61 6 c33 3 120 9 193 12 149 8 141 1 116 97 -45 174 -145
275 -319 322 -83 23 -309 29 -400 11z"/>
<path d="M1745 1518 c-9 -22 -485 -1453 -485 -1456 0 -1 95 -1 212 0 l212 3
31 115 31 115 236 3 236 2 17 -57 c9 -32 24 -85 34 -118 l17 -60 217 -3 217
-2 -55 157 c-31 87 -146 418 -257 736 l-202 577 -228 0 c-174 0 -230 -3 -233
-12z m309 -640 l73 -258 -147 0 -146 0 70 264 c39 146 72 262 73 258 2 -4 36
-123 77 -264z"/>
<path d="M2840 1238 c0 -161 3 -492 7 -735 l6 -443 170 0 170 0 -6 553 -6 552
59 -240 c33 -132 94 -381 136 -553 l76 -312 153 0 153 0 16 73 c9 39 65 288
124 551 l109 479 6 -384 c4 -211 7 -459 7 -551 l0 -168 172 0 171 0 -6 443
c-4 243 -7 574 -7 735 l0 292 -273 0 -274 0 -82 -367 c-115 -510 -117 -518
-123 -507 -3 5 -52 204 -109 441 l-104 433 -272 0 -273 0 0 -292z"/>
<path d="M4613 1043 c4 -410 7 -500 21 -563 53 -233 208 -394 418 -431 111
-20 369 -18 445 3 101 28 154 58 224 128 75 74 121 155 149 265 22 86 22 79
21 643 l-1 442 -205 0 -206 0 1 -495 c1 -465 0 -497 -18 -537 -35 -80 -112
-128 -208 -128 -92 0 -164 46 -203 129 l-26 56 -3 488 -4 487 -205 0 -205 0 5
-487z"/>
<path d="M6180 1238 c0 -161 3 -492 7 -735 l6 -443 559 0 558 0 0 170 0 170
-355 0 -355 0 0 114 c0 62 -3 128 -6 145 l-6 31 321 0 321 0 0 150 0 150 -320
0 -320 0 0 115 0 115 345 0 345 0 0 155 0 155 -550 0 -550 0 0 -292z"/>
<path d="M7530 1238 c0 -161 3 -492 7 -735 l6 -443 524 0 523 0 0 180 0 180
-318 0 -319 0 -6 167 c-4 91 -7 341 -7 555 l0 388 -205 0 -205 0 0 -292z"/>
</g>
</svg>
